<svg
        xmlns="http://www.w3.org/2000/svg" width="24" height="24" viewBox="0 0 24 24" fill="none" focusable="false" aria-hidden="true" class="SvgIcon">
    <path fill-rule="evenodd" clip-rule="evenodd"
          d="M12.7629 1.53688C10.622 1.30227 9.12159 1.66726 8.15647 2.44326C7.41187 3.04194 7.07973 3.81134 7.00418 4.49813C6.59135 4.82191 6.11613 5.24127 5.79449 5.8404C5.34521 6.67726 5.24592 7.72113 5.4649 9.14453C5.46851 9.16801 5.47294 9.19126 5.47817 9.21426C5.47599 9.26282 5.47733 9.31214 5.48242 9.36194C5.58835 10.3991 5.82874 11.8894 6.36669 13.3218C6.77673 14.4136 7.39023 15.553 8.31939 16.4105C8.39975 16.7474 8.42905 17.2771 8.32498 17.7883C8.18845 18.4589 7.94113 18.6155 7.85457 18.6369C6.13102 19.0634 4.98208 19.3999 3.71053 20.2457C3.25069 20.5516 3.12589 21.1724 3.43178 21.6322C3.73766 22.092 4.3584 22.2169 4.81824 21.911C5.78217 21.2698 6.63998 20.9978 8.33494 20.5784C9.59858 20.2657 10.1077 19.057 10.2848 18.1872C10.3295 17.9677 10.3601 17.7398 10.3768 17.5098C10.603 17.553 10.8499 17.5824 11.114 17.5923L11.6264 17.6117C11.7469 17.6162 11.8437 17.5139 11.8367 17.3936C11.8071 16.887 11.8306 16.3633 11.921 15.8588C11.9431 15.7358 11.8532 15.6188 11.7282 15.6141L11.1895 15.5938C10.9037 15.583 10.6787 15.537 10.5211 15.4892C10.3978 15.4518 10.3319 15.4183 10.3144 15.4095L10.3097 15.4072L10.3118 15.4089L10.2811 15.3871L10.2446 15.3657C9.35572 14.8434 8.70005 13.8463 8.23901 12.6187C7.86329 11.6182 7.65077 10.5544 7.53377 9.68126C8.76405 9.23834 10.2538 8.56928 11.4131 7.51717C11.9747 7.88106 12.7192 8.30371 13.5062 8.67672C14.3709 9.08662 15.414 9.49937 16.4074 9.67412C16.2125 11.1353 15.7848 13.0454 14.8422 14.3043C14.6348 14.5812 14.4065 14.825 14.1552 15.0303C13.9862 15.1685 13.8016 15.3804 13.703 15.6783C13.4515 16.4379 13.4535 17.4638 13.6894 18.3444C13.9158 19.1891 14.4738 20.2837 15.6646 20.5783C17.3596 20.9977 18.2174 21.2697 19.1813 21.9109C19.6412 22.2168 20.2619 22.092 20.5678 21.6322C20.8737 21.1723 20.7489 20.5516 20.289 20.2457C19.0175 19.3999 17.8685 19.0633 16.145 18.6369C16.0327 18.6091 15.7851 18.4381 15.6213 17.8268C15.4888 17.3323 15.4903 16.8046 15.5615 16.4601C15.8945 16.1693 16.1867 15.8456 16.4432 15.503C17.8817 13.5817 18.3136 10.7857 18.4676 9.27736C18.4743 9.21247 18.4745 9.1484 18.469 9.08576C18.4965 9.00729 18.5146 8.92429 18.5218 8.8381C18.6236 7.62592 18.6909 5.94393 17.927 4.47952C17.1129 2.91884 15.4938 1.83616 12.7629 1.53688ZM8.99087 4.88333C8.96777 4.68003 9.02955 4.30757 9.40969 4.00192C9.80163 3.68679 10.6866 3.32132 12.545 3.52498C14.8132 3.77355 15.7312 4.59446 16.1537 5.4045C16.4937 6.05617 16.5909 6.83685 16.5812 7.67174C15.9345 7.53401 15.1571 7.24599 14.3628 6.86948C13.1904 6.31371 12.2277 5.6863 11.9475 5.44431C11.744 5.26863 11.4785 5.18223 11.2106 5.2046C10.9428 5.22698 10.6952 5.35623 10.5237 5.56323C9.76226 6.48251 8.56074 7.13156 7.35873 7.6087C7.38108 7.20301 7.46618 6.95484 7.5566 6.78641C7.72627 6.47038 7.97962 6.27434 8.50449 5.86822L8.60991 5.78659C8.88589 5.57267 9.0303 5.23028 8.99087 4.88333Z"
          fill="currentColor"></path>
</svg>
